@startuml

abstract class Employee {
  - firstName : String
  - lastName : String
  - socialSecurityNumber : String
  + getFirstName() : String
  + setFirstName(firstName : String) : void
  + getLastName() : String
  + setLastName(lastName : String) : void
  + getSocialSecurityNumber() : String
  + setSocialSecurityNumber(socialSecurityNumber : String) : void
  + toString() : String
}

class SalariedEmployee {
  - weeklySalary : int
  + getWeeklySalary() : int
  + setWeeklySalary(weeklySalary : int) : void
  + toString() : String
}

class HourlyEmployee {
  - wage : int
  - hoursWorked : int
  + getWage() : int
  + setWage(wage : int) : void
  + getHoursWorked() : int
  + setHoursWorked(hoursWorked : int) : void
  + toString() : String
}

class CommissionEmployee {
  - commissionRate : int
  - grossSales : int
  + getCommissionRate() : int
  + setCommissionRate(commissionRate : int) : void
  + getGrossSales() : int
  + setGrossSales(grossSales : int) : void
  + toString() : String
}

class BaseEmployee {
  - baseSalary : int
  + getBaseSalary() : int
  + setBaseSalary(baseSalary : int) : void
  + toString() : String
}

Employee <|-- SalariedEmployee
Employee <|-- HourlyEmployee
Employee <|-- CommissionEmployee
Employee <|-- BaseEmployee

@enduml
